<?xml version="1.0" encoding="iso-8859-1"?>
<!-- Generator: Adobe Illustrator 19.0.0, SVG Export Plug-In . SVG Version: 6.00 Build 0)  -->
<svg version="1.1" id="Capa_1" xmlns="http://www.w3.org/2000/svg" xmlns:xlink="http://www.w3.org/1999/xlink" x="0px" y="0px"
	 viewBox="0 0 460 460" style="enable-background:new 0 0 460 460;" xml:space="preserve">
<g id="XMLID_527_">
	<path id="XMLID_530_" style="fill:#EBE5DD;" d="M113.782,65.326c-7.637-9.305-19.222-15.253-32.172-15.253
		C58.667,50.073,40,68.739,40,91.683c0,12.95,5.949,24.536,15.256,32.173C70.695,100.688,90.615,80.766,113.782,65.326z"/>
	<path id="XMLID_531_" style="fill:#C0AB91;" d="M460,91.683c0-45.072-36.538-81.61-81.61-81.61
		c-28.258,0-53.157,14.365-67.805,36.188c-24.813-10.33-52.03-16.043-80.585-16.043v189.71c52.38,0,95,42.62,95,95s-42.62,95-95,95
		v40c115.9,0,209.85-93.96,209.85-209.85c0-28.555-5.713-55.773-16.042-80.587C445.633,144.843,460,119.943,460,91.683z
		 M378.39,50.073c22.944,0,41.61,18.666,41.61,41.61c0,12.95-5.949,24.536-15.256,32.173c-15.439-23.169-35.359-43.09-58.526-58.53
		C353.855,56.021,365.44,50.073,378.39,50.073z M310,213.914c-22.091,0-40-17.909-40-40s17.909-40,40-40s40,17.909,40,40
		S332.091,213.914,310,213.914z"/>
	<path id="XMLID_535_" style="fill:#D9CCBC;" d="M404.744,123.857C414.051,116.219,420,104.634,420,91.683
		c0-22.944-18.667-41.61-41.61-41.61c-12.95,0-24.535,5.948-32.172,15.253C369.385,80.766,389.305,100.688,404.744,123.857z"/>
	<path id="XMLID_536_" style="fill:#D9CCBC;" d="M277,296.927l-27,14.505v26.495h-20v72c52.38,0,95-42.62,95-95s-42.62-95-95-95v30
		C255.916,249.927,277,271.011,277,296.927z"/>
	<path id="XMLID_782_" style="fill:#D9CCBC;" d="M135,314.927c0-52.38,42.62-95,95-95V30.218c-28.555,0-55.772,5.713-80.585,16.043
		c-14.648-21.823-39.547-36.188-67.805-36.188C36.538,10.073,0,46.611,0,91.683c0,28.26,14.367,53.16,36.192,67.808
		c-10.329,24.814-16.042,52.032-16.042,80.587c0,115.89,93.95,209.85,209.85,209.85v-40C177.62,409.927,135,367.307,135,314.927z
		 M40,91.683c0-22.944,18.667-41.61,41.61-41.61c12.95,0,24.535,5.948,32.172,15.253c-23.167,15.44-43.088,35.361-58.526,58.53
		C45.949,116.219,40,104.634,40,91.683z M110,173.914c0-22.091,17.909-40,40-40s40,17.909,40,40s-17.909,40-40,40
		S110,196.005,110,173.914z"/>
	<path id="XMLID_786_" style="fill:#EBE5DD;" d="M135,314.927c0,52.38,42.62,95,95,95v-72h-20v-26.495l-27-14.505
		c0-25.916,21.084-47,47-47v-30C177.62,219.927,135,262.548,135,314.927z"/>
	<circle id="XMLID_787_" style="fill:#D9CCBC;" cx="310" cy="173.914" r="40"/>
	<circle id="XMLID_788_" style="fill:#C0AB91;" cx="150" cy="173.914" r="40"/>
	<path id="XMLID_789_" style="fill:#C0AB91;" d="M250,311.433l27-14.505c0-25.916-21.084-47-47-47s-47,21.084-47,47l27,14.505
		v26.495h40V311.433z"/>
</g>
<g>
</g>
<g>
</g>
<g>
</g>
<g>
</g>
<g>
</g>
<g>
</g>
<g>
</g>
<g>
</g>
<g>
</g>
<g>
</g>
<g>
</g>
<g>
</g>
<g>
</g>
<g>
</g>
<g>
</g>
</svg>
